<svg xmlns="http://www.w3.org/2000/svg" version="1.1" xmlns:xlink="http://www.w3.org/1999/xlink" xmlns:svgjs="http://svgjs.dev/svgjs" viewBox="0 0 14.219467148867516 13.71662437510448"><g transform="matrix(1,0,0,1,1.163777519746258,11.495346855358223)"><g><path d=" M 0.87525 0.5272499999999999 Q 0.8310000000000001 0.6059999999999999 0.74175 0.6532499999999999 Q 0.6525 0.7004999999999999 0.5235 0.7004999999999999 L 0.378 0.7004999999999999 L 0.378 1.0574999999999999 L 0.084 1.0574999999999999 L 0.084 -2.220446049250313e-16 L 0.5235 -2.220446049250313e-16 Q 0.651 -2.220446049250313e-16 0.74025 0.04499999999999993 Q 0.8295 0.08999999999999986 0.8745 0.16949999999999987 Q 0.9195 0.2489999999999999 0.9195 0.3524999999999999 Q 0.9195 0.4484999999999999 0.87525 0.5272499999999999 M 0.6195 0.3524999999999999 Q 0.6195 0.23699999999999988 0.495 0.23699999999999988 L 0.378 0.23699999999999988 L 0.378 0.4664999999999999 L 0.495 0.4664999999999999 Q 0.6195 0.4664999999999999 0.6195 0.3524999999999999 M 1.7054794921875 0.8849999999999999 L 1.3304794921875 0.8849999999999999 L 1.2734794921875 1.0574999999999999 L 0.9644794921875 1.0574999999999999 L 1.3499794921875 -2.220446049250313e-16 L 1.6889794921874999 -2.220446049250313e-16 L 2.0729794921874998 1.0574999999999999 L 1.7624794921875 1.0574999999999999 L 1.7054794921875 0.8849999999999999 M 1.6319794921875 0.6599999999999999 L 1.5179794921875 0.31799999999999984 L 1.4054794921875 0.6599999999999999 L 1.6319794921875 0.6599999999999999 M 3.14698681640625 1.0574999999999999 L 2.8529868164062497 1.0574999999999999 L 2.46148681640625 0.4664999999999999 L 2.46148681640625 1.0574999999999999 L 2.16748681640625 1.0574999999999999 L 2.16748681640625 -2.220446049250313e-16 L 2.46148681640625 -2.220446049250313e-16 L 2.8529868164062497 0.5984999999999998 L 2.8529868164062497 -2.220446049250313e-16 L 3.14698681640625 -2.220446049250313e-16 L 3.14698681640625 1.0574999999999999 M 4.1100087890624994 -2.220446049250313e-16 L 4.1100087890624994 0.23399999999999987 L 3.8280087890625 0.23399999999999987 L 3.8280087890625 1.0574999999999999 L 3.5340087890625 1.0574999999999999 L 3.5340087890625 0.23399999999999987 L 3.2550087890625 0.23399999999999987 L 3.2550087890625 -2.220446049250313e-16 L 4.1100087890624994 -2.220446049250313e-16 M 4.7535146484375 1.0574999999999999 L 4.5435146484375 0.6674999999999999 L 4.5120146484375 0.6674999999999999 L 4.5120146484375 1.0574999999999999 L 4.218014648437499 1.0574999999999999 L 4.218014648437499 -2.220446049250313e-16 L 4.6815146484375 -2.220446049250313e-16 Q 4.8090146484375 -2.220446049250313e-16 4.8975146484375 0.0442499999999999 Q 4.9860146484375 0.08849999999999991 5.0310146484375 0.16574999999999984 Q 5.0760146484375 0.24299999999999988 5.0760146484375 0.33899999999999986 Q 5.0760146484375 0.44699999999999984 5.0167646484374995 0.5287499999999998 Q 4.9575146484375 0.6104999999999998 4.8435146484375 0.6449999999999998 L 5.0820146484375 1.0574999999999999 L 4.7535146484375 1.0574999999999999 M 4.5120146484375 0.4664999999999999 L 4.6575146484375 0.4664999999999999 Q 4.7175146484375 0.4664999999999999 4.7475146484375 0.43799999999999983 Q 4.777514648437499 0.40949999999999986 4.777514648437499 0.3554999999999998 Q 4.777514648437499 0.3044999999999999 4.7467646484375 0.2752499999999999 Q 4.7160146484375 0.24599999999999989 4.6575146484375 0.24599999999999989 L 4.5120146484375 0.24599999999999989 L 4.5120146484375 0.4664999999999999 M 6.16953076171875 -2.220446049250313e-16 L 5.7975307617187495 0.7214999999999998 L 5.7975307617187495 1.0574999999999999 L 5.50203076171875 1.0574999999999999 L 5.50203076171875 0.7214999999999998 L 5.13003076171875 -2.220446049250313e-16 L 5.466030761718749 -2.220446049250313e-16 L 5.65203076171875 0.4079999999999999 L 5.83803076171875 -2.220446049250313e-16 L 6.16953076171875 -2.220446049250313e-16 M 7.489482421875 -2.220446049250313e-16 L 7.489482421875 1.0574999999999999 L 7.195482421875 1.0574999999999999 L 7.195482421875 0.6329999999999999 L 6.836982421875 0.6329999999999999 L 6.836982421875 1.0574999999999999 L 6.542982421874999 1.0574999999999999 L 6.542982421874999 -2.220446049250313e-16 L 6.836982421875 -2.220446049250313e-16 L 6.836982421875 0.39749999999999985 L 7.195482421875 0.39749999999999985 L 7.195482421875 -2.220446049250313e-16 L 7.489482421875 -2.220446049250313e-16 M 7.949953857421875 0.23549999999999982 L 7.949953857421875 0.4079999999999999 L 8.287453857421875 0.4079999999999999 L 8.287453857421875 0.6315 L 7.949953857421875 0.6315 L 7.949953857421875 0.8219999999999998 L 8.332453857421875 0.8219999999999998 L 8.332453857421875 1.0574999999999999 L 7.655953857421874 1.0574999999999999 L 7.655953857421874 -2.220446049250313e-16 L 8.332453857421875 -2.220446049250313e-16 L 8.332453857421875 0.23549999999999982 L 7.949953857421875 0.23549999999999982 M 8.770414306640625 0.8324999999999999 L 9.098914306640625 0.8324999999999999 L 9.098914306640625 1.0574999999999999 L 8.476414306640624 1.0574999999999999 L 8.476414306640624 -2.220446049250313e-16 L 8.770414306640625 -2.220446049250313e-16 L 8.770414306640625 0.8324999999999999 M 10.002706054687499 0.5272499999999999 Q 9.958456054687499 0.6059999999999999 9.8692060546875 0.6532499999999999 Q 9.7799560546875 0.7004999999999999 9.6509560546875 0.7004999999999999 L 9.5054560546875 0.7004999999999999 L 9.5054560546875 1.0574999999999999 L 9.211456054687499 1.0574999999999999 L 9.211456054687499 -2.220446049250313e-16 L 9.6509560546875 -2.220446049250313e-16 Q 9.7784560546875 -2.220446049250313e-16 9.867706054687499 0.04499999999999993 Q 9.956956054687499 0.08999999999999986 10.001956054687499 0.16949999999999987 Q 10.046956054687499 0.2489999999999999 10.046956054687499 0.3524999999999999 Q 10.046956054687499 0.4484999999999999 10.002706054687499 0.5272499999999999 M 9.7469560546875 0.3524999999999999 Q 9.7469560546875 0.23699999999999988 9.622456054687499 0.23699999999999988 L 9.5054560546875 0.23699999999999988 L 9.5054560546875 0.4664999999999999 L 9.622456054687499 0.4664999999999999 Q 9.7469560546875 0.4664999999999999 9.7469560546875 0.3524999999999999 M 10.457935546875 0.23549999999999982 L 10.457935546875 0.4079999999999999 L 10.795435546875 0.4079999999999999 L 10.795435546875 0.6315 L 10.457935546875 0.6315 L 10.457935546875 0.8219999999999998 L 10.840435546875 0.8219999999999998 L 10.840435546875 1.0574999999999999 L 10.163935546874999 1.0574999999999999 L 10.163935546874999 -2.220446049250313e-16 L 10.840435546875 -2.220446049250313e-16 L 10.840435546875 0.23549999999999982 L 10.457935546875 0.23549999999999982 M 11.51989599609375 1.0574999999999999 L 11.309895996093749 0.6674999999999999 L 11.27839599609375 0.6674999999999999 L 11.27839599609375 1.0574999999999999 L 10.984395996093749 1.0574999999999999 L 10.984395996093749 -2.220446049250313e-16 L 11.447895996093749 -2.220446049250313e-16 Q 11.57539599609375 -2.220446049250313e-16 11.66389599609375 0.0442499999999999 Q 11.75239599609375 0.08849999999999991 11.79739599609375 0.16574999999999984 Q 11.84239599609375 0.24299999999999988 11.84239599609375 0.33899999999999986 Q 11.84239599609375 0.44699999999999984 11.783145996093749 0.5287499999999998 Q 11.723895996093749 0.6104999999999998 11.60989599609375 0.6449999999999998 L 11.84839599609375 1.0574999999999999 L 11.51989599609375 1.0574999999999999 M 11.27839599609375 0.4664999999999999 L 11.42389599609375 0.4664999999999999 Q 11.48389599609375 0.4664999999999999 11.51389599609375 0.43799999999999983 Q 11.543895996093749 0.40949999999999986 11.543895996093749 0.3554999999999998 Q 11.543895996093749 0.3044999999999999 11.51314599609375 0.2752499999999999 Q 11.48239599609375 0.24599999999999989 11.42389599609375 0.24599999999999989 L 11.27839599609375 0.24599999999999989 L 11.27839599609375 0.4664999999999999" fill="#be0000" fill-rule="nonzero"></path></g><g></g><g clip-path="url(#SvgjsClipPath1036)"><g clip-path="url(#SvgjsClipPath1035b9c666e9-083c-44ed-a453-2f0f163d8bdc)"><path d=" M 6.9463826169850496 -9.637748949643068 L 6.741297345609232 -7.356028567662388 L 6.730775692933179 -7.316898454404336 L 6.614167955424182 -7.38676744552177 C 6.593669433365832 -7.399091298811414 6.571519469090832 -7.408431468809729 6.548385887247033 -7.4145063480313675 C 6.4822815805984595 -7.4322478497647015 6.4118351213511495 -7.422967490227608 6.352580749107816 -7.388711693473031 C 6.293326376864482 -7.354455896718453 6.250130723207959 -7.298038131796345 6.232518917447307 -7.23189915282712 L 6.19773659455126 -7.1005958838945435 L 6.080954945427782 -7.170725742433698 L 5.973825390907956 -7.434114882564014 C 6.046657827805864 -7.443721985488421 6.118481412949211 -7.4598444596251365 6.188432323176565 -7.482288399775039 C 6.260792536523884 -7.505363714707469 6.330789440317023 -7.53528127654085 6.397474083781807 -7.571635491714259 C 6.4046329754821425 -7.574851469704788 6.408144517207589 -7.583007308550982 6.405560973855138 -7.590417946078125 C 6.401877107694687 -7.598494865695632 6.392540335046817 -7.602305793307007 6.38425680108131 -7.599113526802137 C 6.226796691639401 -7.556760277153147 6.0606674421047515 -7.558972925488889 5.9043911788267245 -7.605504778634285 C 5.891956498391386 -7.635939311168327 5.880391376028451 -7.66837382726889 5.866521924773653 -7.699373572549991 C 5.851994581541822 -7.734721862346415 5.8313942661702765 -7.767255646122479 5.805652859705571 -7.795503217453941 L 5.5143509054511775 -8.093239901444104 L 5.543915879912817 -8.419889391341604 C 5.672569167969871 -8.380612055504425 5.806816615077183 -8.362808367366329 5.941260441096533 -8.367194172154093 C 6.1135711474621095 -8.37283625947564 6.282713945761734 -8.415044153066924 6.437473755112262 -8.49101924166402 C 6.455256217692868 -8.49762788301427 6.462734417115517 -8.510062563449605 6.459821397572974 -8.518932055788097 C 6.456908378030431 -8.52780154812659 6.444951954534913 -8.534888446416659 6.425039074676927 -8.530714567669133 C 6.272414880120911 -8.49908928074553 6.114193628743433 -8.50764380536787 5.965868934545487 -8.555540450636187 C 5.816553377677004 -8.60445553306402 5.683041122882494 -8.692422905797978 5.579176459748684 -8.810320965849732 L 5.6287847477791715 -9.362490341824476 C 5.757039098336393 -9.323295280376279 5.890870279265839 -9.30547756306013 6.0249119276615275 -9.309751644733344 C 6.179744969869702 -9.314923186262122 6.332197995170217 -9.349370429737707 6.474212583671213 -9.411272549686181 C 6.49486458789074 -9.421620290747756 6.501299317626509 -9.436315822171336 6.498603687602066 -9.44788094453427 C 6.493506749023503 -9.461684162138663 6.478595484093882 -9.469187282708345 6.464473533260319 -9.465054716464195 C 6.321319947294472 -9.442526359537446 6.174830340552648 -9.455302223355174 6.037737909229445 -9.502271801962966 C 5.893449678885973 -9.551999556047598 5.764588936073019 -9.6384261565761 5.66382793809694 -9.753052350043463 C 5.703610219909292 -10.19435307178706 6.0757810748969945 -10.374221159063241 6.4096044188918055 -10.323134622309672 C 6.711775849051214 -10.27683065495431 6.982599710700558 -10.040919549911871 6.9463826169850496 -9.637748949643068 Z" fill="#e8ad54" transform="matrix(1,0,0,1,0,0)" fill-rule="evenodd"></path></g><g clip-path="url(#SvgjsClipPath1035b9c666e9-083c-44ed-a453-2f0f163d8bdc)"><path d=" M 5.621523937874621 -7.615069917430699 L 5.804739823729549 -7.163334498818289 C 5.752870778726225 -7.128601235150071 5.7153866391086225 -7.07620687511574 5.699262429547286 -7.015900927642669 L 5.664132283422279 -6.884423747095612 C 5.551089734010127 -6.952031887224804 5.460264393347823 -7.027900829041805 5.320091632076754 -6.97272736934795 C 5.178440622082603 -6.9162060946418755 5.165005949864005 -6.7963375143613725 5.13070188390778 -6.66838204400754 C 5.016789776423225 -6.736598874787413 4.9237470626763 -6.813728675809397 4.78253083171835 -6.754990028018698 C 4.644401531917423 -6.69772962895108 4.630966859698825 -6.578252349803159 4.59748887391138 -6.452122951401369 C 4.480663746884282 -6.521991942518802 4.3855775716672145 -6.601165205010931 4.241230931648619 -6.535209225219301 C 4.109536361583461 -6.4750358066091405 4.097145159051745 -6.359297627172543 4.06405847439688 -6.235863858795197 L 3.9524072179005687 -6.302645918755608 L 3.7310177326672305 -6.848424042898204 L 5.003572493722727 -7.3462895172514955 C 5.017181077555806 -7.351898166818483 5.021572345821432 -7.360985048675075 5.0197027959657685 -7.3680284690615245 C 5.018077083006819 -7.37254313452239 5.014712028619977 -7.376219306371958 5.010358341728887 -7.378236868589781 C 5.006004654837797 -7.380254430807602 5.001024563000256 -7.380445521842505 4.996529073336278 -7.378767511255679 L 3.7320177244504915 -7.115552282739845 L 3.8571036531654004 -7.83132901003687 C 3.8608174993854645 -7.843747052988247 3.8580221819208247 -7.857200539967186 3.8496689316463697 -7.867111324716179 C 3.8354081792589905 -7.880980775970977 3.8054084257611502 -7.876198206572772 3.7855825017104032 -7.86793740488496 C 3.7454341500276294 -7.8513587720869396 3.699443897785695 -7.870424105080634 3.6828007375525846 -7.910545750432616 L 3.584192852142291 -8.148500316945197 C 3.567665946136778 -8.188648618680288 3.586716142931417 -8.234602358703276 3.6268011976899492 -8.251282081103017 L 4.6865750984288805 -8.689974128629409 C 4.726711515184931 -8.706701657574614 4.77281096775725 -8.687748146892707 4.789574252104799 -8.647626650503472 L 4.887877792189752 -8.40962860608727 C 4.902182850019809 -8.375155794274573 4.890350407152583 -8.335375556905007 4.859530199029473 -8.314325041352102 C 4.840921656280088 -8.299238208795941 4.831617384905396 -8.288890467734367 4.832226075556076 -8.277934036022113 C 4.832834766206757 -8.26823846351484 4.841530346930768 -8.257673332935166 4.859312809511373 -8.243151713126066 Z" fill="#4fc0e2" transform="matrix(1,0,0,1,0,0)" fill-rule="evenodd"></path></g><g clip-path="url(#SvgjsClipPath1035b9c666e9-083c-44ed-a453-2f0f163d8bdc)"><path d=" M 2.747025817938062 -5.909866537451997 C 2.4397819656896473 -6.336210860350292 2.1359293899235974 -6.764250821489769 1.835468090639912 -7.19398642087043 C 1.8247290484457572 -7.208290651161429 1.8139465283479828 -7.210768891667772 1.8085987462027155 -7.205812410655087 C 1.8032509640574486 -7.200855929642399 1.802990096635728 -7.1902907990627245 1.8106422076728583 -7.1766387373260265 L 2.2859861279509603 -6.329906564325384 C 2.1755902666933764 -6.118078156637985 1.936399077919999 -6.007139855277795 1.7033822194421737 -6.05969139332672 C 1.4476017124453684 -6.109082291839107 1.2253426691396285 -6.322906621842555 1.2696031750248482 -6.634251889665794 C 1.106955754969203 -6.62322047921498 0.9513961978353128 -6.702428708713285 0.8646438970769692 -6.840450133066266 C 0.7778915963186257 -6.9784715574192475 0.7739720069347801 -7.1529919179936226 0.854440254716583 -7.294768983720835 C 0.9349085024983859 -7.436546049448047 1.0867550905420957 -7.5226583780394405 1.2497337730704814 -7.518940272526748 C 1.0512945445718047 -7.604896886396084 0.9285587715481474 -7.806574230673389 0.9433887915186253 -8.022321159696045 C 0.9582188114891033 -8.238068088718702 1.1073956286887359 -8.421054695836952 1.3157298636213564 -8.47905050111692 C 1.5240640985539766 -8.537046306396887 1.7463348397654097 -8.457462773076347 1.870511280957679 -8.280412276528455 C 1.894071853844802 -8.49630889424795 2.0594923016475386 -8.669578014332396 2.274065780455806 -8.703114149017301 C 2.4886392592640743 -8.736650283702208 2.6990406091686663 -8.62211913298581 2.787354267957249 -8.42370757130439 C 2.875667926745832 -8.22529600962297 2.8199464477757736 -7.992312685525545 2.651417907877553 -7.855328812835142 C 3.007675850140314 -8.088326898335037 3.2719345483430304 -7.894458926093195 3.3391079094360214 -7.652721781965669 C 3.3992813280461824 -7.435853998708817 3.301890823937251 -7.180290881230111 2.9710674552922245 -7.158378017805601 L 3.621931672484503 -6.255472393327843 C 3.5657147431037672 -6.192429433078758 3.552062681367069 -6.099778020464413 3.53062807488238 -6.019387376670924 L 2.402811254978057 -7.444636535240068 C 2.3974548508224593 -7.453605566845899 2.386147286462929 -7.457016682094357 2.3767245128060224 -7.452506035795299 C 2.369289791286992 -7.447766944300712 2.366202860129968 -7.436375733552257 2.37511583037208 -7.423114972948138 L 3.275934515476076 -6.125821284732828 C 3.2169976032046974 -6.124507917732925 3.1602934456484078 -6.103023257224453 3.115283661599959 -6.064952219664746 L 1.93781507576153 -7.568374648942756 C 1.9225108536872695 -7.587809271860921 1.9063805514442276 -7.591722283186726 1.8981197497564166 -7.585504942969058 C 1.8898589480686052 -7.579287602751389 1.8894241690324047 -7.563200778411968 1.9042936120704648 -7.542027039349 L 3.029066978721383 -5.921909916754753 L 2.9974150648859803 -5.803215239871993 C 2.9192852720807347 -5.850040942070797 2.842372860576851 -5.910823051331638 2.747025817938062 -5.909866537451997 Z" fill="#8ad143" transform="matrix(1,0,0,1,0,0)" fill-rule="evenodd"></path></g><g clip-path="url(#SvgjsClipPath1035b9c666e9-083c-44ed-a453-2f0f163d8bdc)"><path d=" M 7.150467896577605 -7.048161532128753 L 9.101408387816878 -2.23637498268962 C 9.173673634830589 -2.018651200847847 9.070278217250781 -1.78145656450722 8.861584271448635 -1.6862055902813964 L 8.685020504847577 -1.6146844388263997 C 8.675766240664384 -1.7207182452687881 8.643811879932102 -1.823520835968047 8.59132562254635 -1.9161167446242686 C 8.513581724224988 -2.0576133833209624 8.40330236201932 -2.178592824183884 8.269589135757915 -2.2690703662119027 C 8.124169889277855 -2.3615533827837485 7.958990805110113 -2.4184402907498965 7.787462662515084 -2.4351124801369064 C 7.946026577017439 -2.5068510211100037 8.106242651857354 -2.5921981459161785 8.182328983192457 -2.749979458153371 C 8.23630852171376 -2.8624714038864356 8.239035008044327 -2.992803791153552 8.189807182615109 -3.107454781717494 C 8.12402511443796 -3.271801257401316 7.980156731359184 -3.341061557868068 7.8197232670011685 -3.3596266227138347 C 7.6754656476467105 -3.3715038711422176 7.5302410458037885 -3.3582641890455163 7.390509402463948 -3.32049650945578 C 7.153112573433483 -3.2555157243037494 6.9208910768988865 -3.1729251513764005 6.695775980519034 -3.073411583182989 C 6.454951872367527 -2.9706732969287897 6.234910202146411 -2.8647176458067065 6.068911566125026 -2.7815009382779143 C 5.8590872032546235 -2.6762409336137534 5.7275665448039454 -2.723588370655996 5.504916200365625 -2.803805102835005 C 4.994616045576996 -2.987020988689932 4.4880984684033125 -3.1404110326614987 3.999537265424713 -3.3837568592229674 C 3.8496678035994405 -3.457310683213609 3.7050116979485503 -3.5410421346066343 3.5665843011761624 -3.63436349568899 L 2.890720289402356 -5.300480240313255 C 2.8035036147405186 -5.515521951618065 2.7613300482290617 -5.609782046666353 2.784677682473033 -5.62278193984875 C 2.811547026910229 -5.637477471272329 2.925502612298403 -5.545260837694186 3.158587653605538 -5.405914156591897 C 3.2311522747474157 -5.678433656482425 3.248282568773719 -5.799997875004109 3.3157167972884296 -5.813432547222707 C 3.3756728263804905 -5.825432448621843 3.476150261646446 -5.751433056660503 3.691800663601937 -5.622129771294449 C 3.7573218643573663 -5.867345147711579 3.777799956962413 -5.9903876149563455 3.830103875017344 -6.022126484598989 C 3.8879729647356425 -6.056908807495035 3.984972167711993 -5.981996379557675 4.225231063116437 -5.838301908093381 C 4.292187034691327 -6.088908544559399 4.311839047127594 -6.211907533900545 4.366838595206968 -6.240472516578923 C 4.424925074443367 -6.270907049112965 4.522924269202979 -6.195603320043023 4.758617984727318 -6.0546044786031725 C 4.82787828519407 -6.314863209672844 4.846486827943456 -6.437514375785029 4.906877636071717 -6.459601150824019 C 4.966007584994996 -6.481122713115948 5.065441550574071 -6.406688542118408 5.291874472627336 -6.270863571209344 C 5.362134764877352 -6.533861410207079 5.380352006494157 -6.656251708897544 5.441960195923779 -6.676512411984492 C 5.501090144847059 -6.696120946517138 5.600741499944234 -6.621512863905117 5.825304872141837 -6.487122663815517 C 5.890826072897266 -6.731903261196447 5.911086775984212 -6.854945728441212 5.963173304521042 -6.887119377120056 C 6.02086848262486 -6.922640824377644 6.118041597215692 -6.847380573211323 6.358822227463577 -6.703294800614449 C 6.431604238123555 -6.977205593420818 6.448560620535378 -7.0985959003280215 6.516777451315249 -7.110813191245259 C 6.57695086992541 -7.121769622957514 6.677645694709466 -7.048161532128754 6.892035237459976 -6.919510415317 C 6.960904236794149 -7.177334383783949 6.97642584838651 -7.328202709345552 7.00681690301693 -7.336550466840603 C 7.0318166975984635 -7.343333019805332 7.067164233241573 -7.253942449962491 7.150685286095705 -7.047900664707034 Z M 6.68090653748097 -0.8019085085530246 L 5.363873881022153 -0.2678694183878463 C 5.159562099620946 -0.2084625898636734 4.941603490322848 -0.30058717903564336 4.841834692256108 -0.4885197792596401 L 4.486837609198329 -1.3639038907459042 C 4.734922527254384 -1.3155274766513188 4.98329729800124 -1.2787886480923678 5.231961921438895 -1.253687405069055 C 5.4794323418099395 -1.2277370410786475 5.728085040096147 -1.2146760262276164 5.976912322064973 -1.214557291811003 C 6.100954781093007 -1.2149920708472042 6.164215130860194 -1.2149920708472042 6.251257893907551 -1.124862376642822 C 6.373634633587408 -0.9919512866582849 6.519253825878555 -0.8825048270469686 6.680950015384591 -0.8019085085530246 Z" fill="#d1a75a" transform="matrix(1,0,0,1,0,0)" fill-rule="evenodd"></path></g><g clip-path="url(#SvgjsClipPath1035b9c666e9-083c-44ed-a453-2f0f163d8bdc)"><path d=" M 3.3611512065713907 -3.5416251272674018 C 2.9941977000180957 -4.446530735311682 2.7274607613090356 -5.043873653147669 2.7274607613090356 -5.043873653147669 C 2.576462002036572 -4.604746826585076 2.4429848379229915 -3.9236219884732373 2.4821584290846648 -3.3065835802973638 C 2.506332143497417 -2.925064976031349 2.5739402836266083 -2.6345456240421177 2.715460859909899 -2.4088083484467724 C 2.87902473332856 -2.1479409267264202 3.142153006037155 -1.9732032320774042 3.5515409465236276 -1.8455955849525303 C 4.248361307842308 -1.6285973679848187 5.312004742003423 -1.4869463579906679 5.841174306963157 -1.4732942962539681 C 6.135128413338374 -1.4657726189276996 6.2394319041228945 -1.5078592296319169 6.4368215865579606 -1.3034696047140208 C 6.555245604890973 -1.171089133831682 6.7030744944764855 -1.0683371102454995 6.868426735794283 -1.003472069735615 C 7.035980620016296 -0.9482552248829492 7.214709105756632 -0.9359523189140351 7.388248551475704 -0.9676897550563073 C 7.6832026496341825 -1.0111676586763672 8.046895313415973 -1.1040364608088105 8.256763154189997 -1.2687742376252142 C 8.416587927897332 -1.3940340779546023 8.487196043376308 -1.5614674847954486 8.370631783770929 -1.7808135085586443 C 8.247299463835365 -2.012985513889758 8.046750387070572 -2.1451728335292763 7.7689845534765585 -2.1773754674771997 C 7.440552469530635 -2.2148534203976915 7.305988357826553 -2.302417918288489 7.320336066021174 -2.402373618711004 C 7.334640296312172 -2.5002858576633766 7.447161110880884 -2.5632418621052206 7.574073111547836 -2.6217196424741998 C 7.692550398912497 -2.6762409336137534 7.823331933001633 -2.7272839924637013 7.900157388698276 -2.7985877544005984 C 7.964227419271901 -2.8499641115536773 7.984831360391137 -2.9385053720390397 7.950026544150483 -3.0128903413438684 C 7.901374769999637 -3.1350632505162332 7.705985071131094 -3.1338893471184903 7.453248017387693 -3.070498563640445 C 7.057425182830679 -2.9707602527360297 6.520168727797615 -2.718588411739691 6.184214966525421 -2.5503289247300627 C 5.813913661393381 -2.3646782762724126 5.6351325217077 -2.4700252367438145 5.225048934763306 -2.62858915124617 C 4.089623481725473 -3.0677159778087617 3.8022780167005066 -3.1772368170276897 3.3611512065713907 -3.5416251272674018 Z" fill="#eaddc5" transform="matrix(1,0,0,1,0,0)" fill-rule="evenodd"></path></g><g clip-path="url(#SvgjsClipPath1035b9c666e9-083c-44ed-a453-2f0f163d8bdc)"><path d=" M 10.411701969214587 -5.87438856809803 C 10.138138999637178 -6.057908799278297 9.773576777782985 -6.156168861459629 9.332841268786453 -6.187038173029871 C 8.903076892062352 -6.20933033204402 8.472166946993628 -6.19082740838921 8.045895321632724 -6.131777757528776 C 8.437196454213243 -6.458731592751617 8.827062815974308 -6.628817151713287 9.196885864166529 -6.666555972055498 C 9.635099654753098 -6.711381690687778 10.045791932348177 -6.570904584091369 10.398875987646672 -6.285863447958264 C 10.690033644388553 -6.041004051027127 10.927219181186086 -5.738396699916609 11.095435481543632 -5.397175097964263 C 10.82717681620787 -5.443218197897907 10.55409210357028 -5.4091315214597815 10.285442137101938 -5.3490885365604806 C 9.772011573252666 -5.234437304714386 9.273972187284894 -5.024830331362083 8.85558432074907 -5.097481908311201 C 8.567977988302381 -5.147438019570648 8.317458307643602 -5.331479985594357 8.125372929450183 -5.771911149265551 C 8.49958179267662 -5.948076208978187 8.909066682813915 -6.036495323506145 9.322623961435735 -6.03043076419042 C 9.68609496812299 -6.023786536525663 10.045872799793727 -5.956181225018908 10.386963042054774 -5.830432407538149 C 10.408701993864803 -5.8236063766698 10.424136649649924 -5.828215034453527 10.42926704227709 -5.83760626163546 C 10.434397434904259 -5.846997488817393 10.429788777120532 -5.861258241204772 10.411701969214587 -5.87438856809803 Z" fill="#8ad143" transform="matrix(1,0,0,1,0,0)" fill-rule="evenodd"></path></g><g clip-path="url(#SvgjsClipPath1035b9c666e9-083c-44ed-a453-2f0f163d8bdc)"><path d=" M 8.671064097785539 -8.597496627629544 C 8.760585101339238 -8.300194722675583 8.748498244132861 -7.9430237444368 8.656064221036619 -7.53437492831187 C 8.565395680763682 -7.1617494316623045 8.441569713635896 -6.797983370769867 8.286067261229915 -6.447427337810394 C 8.6577598592778 -6.698468753312621 8.90319262521303 -6.984205535903647 9.03710456836281 -7.285724797508753 C 9.203407549709535 -7.660156503484699 9.19797281175703 -8.059631481945797 9.049191425569187 -8.446280478838979 C 8.928279375601804 -8.761321368469925 8.711802893477532 -9.0688405807746 8.415892281439413 -9.348403501051576 C 8.387240342953795 -9.09118822323531 8.282154249904114 -8.851059761541725 8.155285727140782 -8.622322510596597 C 7.91763550595354 -8.193152123962998 7.603116351166038 -7.80224229251505 7.571899216366834 -7.408549875235419 C 7.551464601665407 -7.147943320936786 7.654507233244946 -6.885771562107832 7.9865479831913335 -6.610643388000102 C 8.228244015071656 -6.885622062688596 8.406919077469858 -7.210104048359345 8.51006542068046 -7.561374706459926 C 8.6062360483047 -7.894930998807169 8.643518548868736 -8.242699927706981 8.620238428453689 -8.589061914327251 C 8.620238428453689 -8.611583468402442 8.629803567250102 -8.623539891897959 8.640673043155116 -8.62523553013914 C 8.65154251906013 -8.626931168380324 8.66523805870045 -8.61745298539115 8.671064097785539 -8.597496627629544 Z" fill="#8ad143" transform="matrix(1,0,0,1,0,0)" fill-rule="evenodd"></path></g></g></g><defs><clipPath id="SvgjsClipPath1036"><path d=" M 0.7966070615422298 -10.331569335611965 h 10.29869798629054 v 10.081569335611965 h -10.29869798629054 Z"></path></clipPath><clipPath id="SvgjsClipPath1035b9c666e9-083c-44ed-a453-2f0f163d8bdc"><path d=" M 0.7966070615422298 -10.331569335611963 L 11.09530504783277 -10.331569335611963 L 11.09530504783277 -0.2500000000000018 L 0.7966070615422298 -0.2500000000000018 Z"></path></clipPath></defs></svg>